# xmcd
#
# Track frame offsets: 
#        150
#        10694
#        34459
#        58942
#        79043
#        94665
#        110893
#        124355
#
# Disc length: 2057 seconds
#
# Revision: 0
# Processed by: cddbd v1.5.2PL0 Copyright (c) Steve Scherf et al.
# Submitted via: ExactAudioCopy v1.3
#
DISCID=6b080708
DTITLE=Kyle Yardley - Juke Joint Boogie
DYEAR=2017
DGENRE=Harmonica Blues
TTITLE0=Juke Joint Boogie
TTITLE1=Long Brown Hair
TTITLE2=Treat You Like a Queen
TTITLE3=I Need Your Love
TTITLE4=Fool For Loving You
TTITLE5=High Maintenance Woman
TTITLE6=Let's Get Drunk
TTITLE7=You Were Crying When You Left Me
EXTD=
EXTT0=
EXTT1=
EXTT2=
EXTT3=
EXTT4=
EXTT5=
EXTT6=
EXTT7=
PLAYORDER=
